:SAMPLES-PER-SECOND 30
:FULLY-SPECIFIED
:DEGREES
157
root  75.1052 38.8915 1.91219 -179.083 87.0068 -175.914
RightUpLeg  -22.3996 -2.30261 1.25312
RightLeg  41.0605 7.26528 -2.59259
RightFoot  3.46041 -0.578514 3.97988
RightToes  5.82075e-010 -1.59028e-015 9.93923e-017
Spine  1.97532 -3.98936 -7.79647
Spine1  6.99304 -5.82963 4.21705
HEad  -15.4762 5.09599 1.42165
LeftShoulder1  9.93923e-017 0 1.22299e-017
LeftArm  21.455 13.8983 -81.7616
LeftForeArm  -40.1726 -35.3736 21.5675
LeftHand  0.889976 6.31529 -0.455165
RightShoulder  1.98785e-016 -4.96962e-017 1.55301e-017
RightArm  23.4806 -59.7586 74.7281
RightForeArm  -39.5703 18.1165 -5.05022
RightHand  1.25637 -11.8017 -3.4662
LeftUpLeg  -1.97727 -5.5821 -2.32901
LeftLeg  20.3957 -7.01945 2.36634
LeftFoot  -12.91 -0.0402313 0.609155
LeftToes  1.8463e-010 2.29954e-012 -3.51709e-011
158
root  76.7544 38.8444 2.00455 -179.876 85.7619 -176.864
RightUpLeg  -23.6826 -3.56533 1.22915
RightLeg  30.8703 7.67161 -1.30814
RightFoot  3.10335 -0.574686 4.0497
RightToes  5.82075e-010 -1.59028e-015 9.93923e-017
Spine  2.3368 -4.87518 -9.42271
Spine1  6.5346 -7.02468 6.53142
HEad  -15.8147 6.1225 1.45526
LeftShoulder1  9.93923e-017 0 1.22299e-017
LeftArm  20.4831 9.54775 -80.5581
LeftForeArm  -39.2443 -38.927 23.4023
LeftHand  0.925823 6.57306 -0.482136
RightShoulder  1.98785e-016 -4.96962e-017 1.55301e-017
RightArm  24.4933 -63.3516 68.5196
RightForeArm  -38.2795 18.0368 -5.38162
RightHand  1.27862 -11.8573 -3.78017
LeftUpLeg  0.887329 -5.7001 -1.99837
LeftLeg  19.5251 -7.91645 2.19087
LeftFoot  -14.1459 -0.0360337 0.704803
LeftToes  1.8463e-010 2.29954e-012 -3.51709e-011
159
root  78.3534 38.8077 2.08317 -178.526 84.8936 -175.741
RightUpLeg  -23.6089 -3.44893 1.09292
RightLeg  18.0584 8.96074 -0.0876374
RightFoot  4.07806 -0.692164 4.58552
RightToes  5.82075e-010 -1.59028e-015 9.93923e-017
Spine  2.18159 -5.71606 -10.0502
Spine1  6.9488 -8.02277 7.97379
HEad  -16.2412 6.93735 1.68575
LeftShoulder1  9.93923e-017 0 1.22299e-017
LeftArm  19.3997 5.89677 -79.1321
LeftForeArm  -39.1873 -41.9643 25.0903
LeftHand  0.943174 6.70955 -0.139149
RightShoulder  1.98785e-016 -4.96962e-017 1.55301e-017
RightArm  21.7969 -65.2955 62.8668
RightForeArm  -32.2434 16.7784 -3.24774
RightHand  1.32738 -12.0041 -4.37956
LeftUpLeg  4.01225 -5.92524 -1.52902
LeftLeg  17.8308 -8.40565 2.1153
LeftFoot  -14.7937 -0.044505 -0.0805487
LeftToes  1.8463e-010 2.29954e-012 -3.51709e-011
160
root  79.9859 38.7254 2.17101 -176.441 84.3733 -173.626
RightUpLeg  -22.2993 0.861451 -0.603944
RightLeg  4.76989 6.45379 0.818964
RightFoot  4.49531 -0.713589 4.62076
RightToes  5.82075e-010 -1.59028e-015 9.93923e-017
Spine  2.01729 -6.27733 -9.86083
Spine1  7.74498 -8.66716 8.53591
HEad  -16.5438 7.192 1.82668
LeftShoulder1  9.93923e-017 0 1.22299e-017
LeftArm  18.136 3.34432 -78.0727
LeftForeArm  -39.3928 -44.1553 26.413
LeftHand  0.956419 6.81152 0.283191
RightShoulder  1.98785e-016 -4.96962e-017 1.55301e-017
RightArm  16.6435 -66.2585 58.5477
RightForeArm  -25.0695 14.672 -0.384313
RightHand  1.41767 -12.3255 -5.26795
LeftUpLeg  7.34539 -6.03453 -0.781362
LeftLeg  16.3764 -8.66423 1.8995
LeftFoot  -14.8764 -0.0657272 -1.75518
LeftToes  1.8463e-010 2.29954e-012 -3.51709e-011
161
root  81.7733 38.5327 2.31571 -176.635 84.2122 -173.695
RightUpLeg  -21.5831 2.79198 -1.20386
RightLeg  -3.36743 4.91635 0.710726
RightFoot  2.30398 -0.610096 4.51438
RightToes  5.82075e-010 -1.59028e-015 9.93923e-017
Spine  1.77434 -6.46146 -9.80795
Spine1  8.38578 -8.93785 8.92546
HEad  -16.4983 7.24686 1.75201
LeftShoulder1  9.93923e-017 0 1.22299e-017
LeftArm  16.9873 2.24496 -77.8223
LeftForeArm  -39.465 -45.0523 26.9905
LeftHand  0.946869 6.76726 1.18798
RightShoulder  1.98785e-016 -4.96962e-017 1.55301e-017
RightArm  11.1763 -66.6253 55.9218
RightForeArm  -19.6324 12.5435 1.68177
RightHand  1.50243 -12.74 -5.72722
LeftUpLeg  10.2441 -6.08123 0.0979411
LeftLeg  16.4622 -8.91007 1.27262
LeftFoot  -14.6345 -0.0747778 -2.96234
LeftToes  1.8463e-010 2.29954e-012 -3.51709e-011
162
root  83.6329 38.2916 2.50468 -174.643 84.392 -172.056
RightUpLeg  -22.3858 3.11496 -0.819829
RightLeg  -3.98913 3.24664 0.659268
RightFoot  0.279852 -0.566067 4.84114
RightToes  5.82075e-010 -1.59028e-015 9.93923e-017
Spine  0.912142 -6.49336 -9.625
Spine1  9.06465 -9.12333 9.56028
HEad  -16.1435 7.71421 1.55467
LeftShoulder1  9.93923e-017 0 1.22299e-017
LeftArm  15.7025 2.87494 -78.027
LeftForeArm  -39.4362 -45.3232 27.171
LeftHand  0.919022 6.61874 2.28152
RightShoulder  1.98785e-016 -4.96962e-017 1.55301e-017
RightArm  8.16797 -66.6219 54.7372
RightForeArm  -17.3993 11.4574 2.45613
RightHand  1.52862 -12.9742 -5.59688
LeftUpLeg  12.5482 -6.06837 1.33872
LeftLeg  16.9395 -9.47952 0.351821
LeftFoot  -13.9412 -0.06263 -4.21275
LeftToes  1.8463e-010 2.29954e-012 -3.51709e-011
